<svg width="40" height="36" viewBox="0 0 40 36" fill="none" xmlns="http://www.w3.org/2000/svg">
<path d="M20 36C19.4 36 18.825 35.8917 18.275 35.675C17.725 35.4583 17.2333 35.1333 16.8 34.7L3.4 21.25C2.23333 20.0833 1.375 18.75 0.825 17.25C0.275 15.75 0 14.1833 0 12.55C0 9.11667 1.11667 6.16667 3.35 3.7C5.58333 1.23333 8.36667 0 11.7 0C13.3 0 14.8083 0.316666 16.225 0.95C17.6417 1.58333 18.9 2.46667 20 3.6C21.0667 2.46667 22.3083 1.58333 23.725 0.95C25.1417 0.316666 26.65 0 28.25 0C31.5833 0 34.375 1.23333 36.625 3.7C38.875 6.16667 40 9.1 40 12.5C40 14.1333 39.7167 15.7 39.15 17.2C38.5833 18.7 37.7333 20.0333 36.6 21.2L23.15 34.7C22.7167 35.1333 22.2333 35.4583 21.7 35.675C21.1667 35.8917 20.6 36 20 36ZM22 10.5C22.2667 10.5 22.5 10.5667 22.7 10.7C22.9 10.8333 23.0833 11 23.25 11.2L26.8 16.5H36.2C36.4667 15.8667 36.6667 15.2167 36.8 14.55C36.9333 13.8833 37 13.2 37 12.5C37 9.93333 36.1667 7.70833 34.5 5.825C32.8333 3.94167 30.75 3 28.25 3C27.0833 3 25.9583 3.24167 24.875 3.725C23.7917 4.20833 22.85 4.88333 22.05 5.75L20.7 7.2C20.6 7.3 20.5 7.38333 20.4 7.45C20.3 7.51667 20.1667 7.55 20 7.55C19.8333 7.55 19.6917 7.51667 19.575 7.45C19.4583 7.38333 19.35 7.3 19.25 7.2L17.9 5.75C17.1 4.88333 16.1583 4.20833 15.075 3.725C13.9917 3.24167 12.8667 3 11.7 3C9.2 3 7.125 3.94167 5.475 5.825C3.825 7.70833 3 9.93333 3 12.5C3 13.2 3.06667 13.8833 3.2 14.55C3.33333 15.2167 3.53333 15.8667 3.8 16.5H14C14.2667 16.5 14.5083 16.5583 14.725 16.675C14.9417 16.7917 15.1167 16.95 15.25 17.15L17.55 20.65L20.55 11.55C20.65 11.25 20.8333 11 21.1 10.8C21.3667 10.6 21.6667 10.5 22 10.5ZM22.45 15.35L19.4 24.45C19.3 24.75 19.1167 25 18.85 25.2C18.5833 25.4 18.2833 25.5 17.95 25.5C17.6833 25.5 17.45 25.4333 17.25 25.3C17.05 25.1667 16.8833 25 16.75 24.8L13.2 19.5H5.9L18.95 32.55C19.1167 32.7167 19.2833 32.8333 19.45 32.9C19.6167 32.9667 19.8 33 20 33C20.2 33 20.3833 32.9667 20.55 32.9C20.7167 32.8333 20.8833 32.7167 21.05 32.55L34.05 19.5H26C25.7333 19.5 25.5 19.4333 25.3 19.3C25.1 19.1667 24.9167 19 24.75 18.8L22.45 15.35Z" fill="black"/>
</svg>
